<svg width="243" height="343" viewBox="0 0 243 343" fill="none" xmlns="http://www.w3.org/2000/svg">
    <path
        d="M115 191.55C113.7 184.55 126.35 185.05 130.52 187.07C131.654 187.508 132.587 188.348 133.14 189.43C133.495 190.505 133.412 191.676 132.91 192.69C132.4 193.862 131.648 194.913 130.704 195.774C129.759 196.636 128.644 197.289 127.43 197.69C124.979 198.462 122.331 198.327 119.97 197.31C118.017 196.569 116.423 195.105 115.52 193.22C115.28 192.686 115.106 192.126 115 191.55Z"
        stroke="#1D1D1B" stroke-miterlimit="10" />
    <path
        d="M81.1005 19.82C81.1005 19.82 92.8805 73.55 99.8205 74.04C99.8205 74.04 93.6805 80.33 90.4605 80.17C90.4605 80.17 88.0405 85.98 82.3905 85.98L70.7705 94.37L66.7705 103.08C66.7705 103.08 69.1605 25.31 81.1005 19.82Z"
        stroke="#1D1D1B" stroke-miterlimit="10" />
    <path
        d="M167.26 19.82C167.26 19.82 154.03 73.07 148.71 74.82C148.71 74.82 149.51 77.72 157.98 80.3C157.98 80.3 160.48 84.66 164.84 84.66L178.23 94.98L180.65 101.6C180.65 101.6 179.2 33.86 167.26 19.82Z"
        stroke="#1D1D1B" stroke-miterlimit="10" />
    <path
        d="M137.091 167.95C137.091 167.95 138.091 143.74 162.741 138.58C187.391 133.42 183.401 119.06 183.401 119.06C183.401 119.06 188.241 148.42 167.401 155.06C146.561 161.7 139.511 161.65 137.091 167.95Z"
        stroke="#1D1D1B" stroke-miterlimit="10" />
    <path
        d="M162.101 94.85C165.993 99.0858 168.952 104.092 170.787 109.544C172.621 114.996 173.29 120.773 172.751 126.5L154.681 134.89C157.173 128.961 159.063 122.797 160.321 116.49C161.739 109.368 162.336 102.108 162.101 94.85Z"
        stroke="#1D1D1B" stroke-miterlimit="10" />
    <path
        d="M88.2005 94.85C80.824 104.04 77.2457 115.705 78.2005 127.45L94.6605 133.25C89.7439 121.071 87.5427 107.967 88.2105 94.85H88.2005Z"
        stroke="#1D1D1B" stroke-miterlimit="10" />
    <path
        d="M78.1906 157.5L86.4205 173.31C86.5239 171.156 87.1519 169.06 88.2499 167.204C89.3478 165.348 90.8825 163.788 92.7206 162.66L78.1906 157.5Z"
        stroke="#1D1D1B" stroke-miterlimit="10" />
    <path
        d="M158.23 161.33L171.13 157.46L163.71 173.27C163.206 170.687 162.337 168.189 161.13 165.85C160.308 164.256 159.337 162.742 158.23 161.33Z"
        stroke="#1D1D1B" stroke-miterlimit="10" />
    <path
        d="M104.641 69.01C110.747 65.2328 117.794 63.2545 124.974 63.3023C132.154 63.35 139.175 65.4219 145.231 69.28C148.188 57.5428 151.783 45.9757 156.001 34.63C158.281 28.49 160.431 22.29 163.001 16.24C165.181 11.05 167.001 6.11 170.351 1.56C170.43 1.42149 170.536 1.30045 170.663 1.2042C170.79 1.10795 170.936 1.03848 171.091 1C171.253 1.01317 171.411 1.06212 171.553 1.14336C171.695 1.22461 171.817 1.33614 171.911 1.47C180.591 10.66 183.571 22.61 184.121 34.94C184.671 47.56 183.251 60.39 186.011 72.71C189.011 86.22 197.011 99.31 194.511 112.92C193.371 110.45 190.861 106.58 188.361 106.06C193.431 107.06 193.481 125.31 193.601 128.87C193.871 137.46 193.671 146.71 198.291 154.32L193.101 147.03C193.626 154.698 195.417 162.227 198.401 169.31L188.851 155.22L194.541 171.08L188.601 165.25C188.051 170.73 183.601 175.05 178.701 177.63C173.801 180.21 168.391 181.53 163.501 184.05C156.571 187.62 151.081 193.39 145.081 198.37C139.081 203.35 131.941 207.75 124.151 207.67C115.981 207.59 108.711 202.67 102.591 197.22C96.4705 191.77 90.7905 185.64 83.3905 182.22C78.3905 179.91 72.9405 178.94 68.0705 176.46C63.2005 173.98 58.8305 169.26 59.1905 163.82L54.0005 170.61L59.0905 155.43L49.7805 168.19C53.0769 161.195 54.9951 153.631 55.4305 145.91L50.8805 152.85C54.8805 145.74 54.3705 137.12 54.3805 128.98C54.3805 121.41 55.3805 113.42 60.2905 107.12C57.8905 107.94 55.2205 109.98 52.8805 111.44C57.6605 108.44 58.9405 87.83 59.6805 82.55C61.1105 72.23 61.7805 61.82 62.6805 51.45C63.2405 44.52 65.1205 -4.55 78.9905 3.58C81.8305 5.26 83.3005 8.49 84.5705 11.58C92.3632 30.32 99.0644 49.4954 104.641 69.01Z"
        stroke="#1D1D1B" stroke-miterlimit="10" />
    <path
        d="M110.001 167.95C110.001 167.95 109.001 143.74 84.1206 138.58C59.2406 133.42 63.2906 119.06 63.2906 119.06C63.2906 119.06 58.4006 148.42 79.4006 155.06C100.401 161.7 107.511 161.65 110.001 167.95Z"
        stroke="#1D1D1B" stroke-miterlimit="10" />
    <path
        d="M31.7005 253.7C31.5789 254.393 31.302 255.049 30.8905 255.62C26.6205 261.97 21.5005 263.32 15.3305 262.29C9.00054 261.23 4.00054 258.14 1.53054 252.1C-0.839457 246.26 0.210543 238.56 0.360543 230.96C0.660735 218.559 2.92205 206.284 7.06054 194.59C10.9105 183.81 15.3205 182.38 20.5405 183.73C26.2205 185.2 30.6305 188.78 33.6805 198.22C33.982 199.095 34.1374 200.014 34.1405 200.94C33.613 204.165 32.8984 207.357 32.0005 210.5C31.3099 213.652 30.4147 216.755 29.3205 219.79C29.1605 220.13 28.9705 220.29 28.7505 220.27C28.2188 219.362 27.7927 218.395 27.4805 217.39C26.7511 215.375 25.8547 213.425 24.8005 211.56C23.4605 209.35 22.0305 208.07 20.5005 207.84C17.8605 207.44 15.6105 210.18 13.7605 215.6C12.1393 220.51 11.2103 225.623 11.0005 230.79C10.9405 234.7 11.0005 238.04 11.9505 241.06C12.9505 244.35 14.9005 246.25 17.7305 246.53C19.4911 246.679 21.2511 246.236 22.7305 245.27C24.0036 244.437 25.1517 243.426 26.1405 242.27C26.6152 241.666 27.1477 241.11 27.7305 240.61C27.9205 240.61 28.0905 240.81 28.2405 241.17C28.4905 241.75 29.1005 243.77 30.1105 247.43C30.7584 249.488 31.2892 251.582 31.7005 253.7Z"
        fill="#1D1D1B" />
    <path
        d="M74.1706 232.57C74.0506 239.57 72.1706 251.76 68.7006 259.31C65.2306 266.86 60.6506 269.6 54.7006 269.05C48.7506 268.5 43.3806 264.95 39.6506 257.22C36.0006 249.65 35.2106 238.39 35.3406 231.62C35.5206 221.69 37.4206 210.09 41.4006 201C45.0206 192.74 49.5506 192.06 55.0206 192.81C60.4906 193.56 65.0206 195.81 68.7906 204.62C72.3962 213.495 74.2241 222.991 74.1706 232.57ZM64.0006 232.07C63.9662 227.987 63.1656 223.947 61.6406 220.16C59.9305 215.88 57.7406 213.38 55.0806 213.16C52.4206 212.94 50.4006 215.23 48.5706 219.72C46.9818 223.598 46.0556 227.715 45.8306 231.9C45.8138 236.051 46.549 240.171 48.0006 244.06C49.6406 247.94 51.9406 250.16 54.7506 250.32C57.3706 250.46 59.5706 248.32 61.3406 244.2C62.8941 240.332 63.7931 236.233 64.0006 232.07Z"
        fill="#1D1D1B" />
    <path
        d="M114.281 216.35C114.281 218.84 114.201 222.2 114.031 226.55C113.861 230.9 113.811 234.33 113.751 237.08C113.571 246.52 112.211 251.19 111.831 260.55C111.831 261.19 111.541 261.55 111.031 261.55C110.521 261.55 110.031 261.69 109.141 261.84C108.251 261.99 107.671 262.1 107.261 262.15C106.851 262.2 106.141 262.26 105.261 262.29C104.592 262.302 103.924 262.352 103.261 262.44C102.951 262.44 102.581 262.15 102.181 261.39C101.031 259.17 98.6806 254.05 94.6606 244.24C93.0977 240.261 91.3218 236.368 89.3406 232.58C89.2405 232.389 89.1048 232.219 88.9406 232.08C88.7731 232.304 88.6915 232.581 88.7106 232.86C88.7106 235.65 88.6206 240.64 88.4806 247.94C88.3406 255.24 88.2506 260.58 88.2206 263.75C88.2206 264.75 87.9706 265.2 87.5106 265.28C83.9606 265.9 82.1906 266.2 78.6106 266.69C78.1106 266.76 77.8606 266.38 77.8606 265.48C77.8606 262.37 77.9706 256.93 78.2606 249.34C78.5506 241.75 78.7206 236.53 78.7706 233.55C78.7706 230.41 78.7706 225.93 78.5806 217.66C78.3906 209.39 78.2706 203.17 78.2706 199.77C78.2706 199.11 78.6106 198.94 79.2706 199.23C80.2706 199.67 81.5906 200.13 83.1206 200.63C83.4806 200.74 84.2006 200.9 85.2506 201.14C85.9888 201.292 86.7046 201.537 87.3806 201.87C87.6006 201.98 87.9306 202.59 88.3806 203.74C92.3806 214.1 94.4806 220.43 98.4806 228.74C99.3706 230.62 100.761 232.92 102.481 236.4C102.911 237.21 103.281 237.64 103.601 237.67C103.921 237.7 104.001 236.67 104.011 234.91C104.011 232.59 103.941 229.03 103.721 224.02C103.501 219.01 103.391 215.14 103.391 212.62C103.391 211.75 103.581 211.4 103.951 211.62C105.031 212.12 106.661 212.82 108.831 213.62C111.001 214.42 112.631 214.86 113.711 215.19C114.101 215.27 114.271 215.67 114.281 216.35Z"
        fill="#1D1D1B" />
    <path
        d="M144.511 220.78C144.509 220.967 144.45 221.149 144.343 221.303C144.236 221.456 144.086 221.574 143.911 221.64C141.471 222.553 138.968 223.285 136.421 223.83C136.101 228.59 135.961 232.15 135.981 234.41C135.981 237.09 135.871 241.34 135.631 247.46C135.391 253.58 135.181 258.17 135.071 261.01C135.071 261.46 134.971 261.73 134.801 261.83C134.552 261.892 134.296 261.916 134.041 261.9C132.453 261.899 130.867 261.806 129.291 261.62C127.655 261.512 126.028 261.298 124.421 260.98C124.184 260.912 123.981 260.759 123.85 260.551C123.719 260.342 123.669 260.093 123.711 259.85C123.841 257.08 124.391 253.11 125.221 247.85C125.892 243.766 126.256 239.638 126.311 235.5C126.311 233.73 126.231 230.29 126.111 225.78C123.274 226.216 120.393 226.276 117.541 225.96C117.261 225.96 117.111 225.82 117.111 225.64C117.188 224.965 117.315 224.296 117.491 223.64C117.771 222.4 117.941 221.64 117.971 221.34C118.051 220.48 118.081 219.53 118.151 218.57C118.271 217.04 118.491 216.2 118.801 216.26C118.929 216.287 119.056 216.32 119.181 216.36C123.363 217.617 127.819 217.652 132.021 216.46C135.066 215.578 137.991 214.326 140.731 212.73C142.981 211.49 144.121 210.78 144.131 210.73C144.477 210.557 144.677 210.487 144.731 210.52C144.781 210.52 144.831 210.77 144.831 211.15C144.831 211.76 144.831 212.65 144.721 213.74C144.611 214.83 144.571 215.74 144.541 216.24C144.511 216.74 144.541 217.55 144.541 218.53C144.575 219.28 144.565 220.031 144.511 220.78Z"
        fill="#1D1D1B" />
    <path
        d="M172.141 250.12C172.341 252.12 172.571 255.92 172.681 260.7C172.801 265.9 172.621 268.15 172.391 268.85C172.221 269.4 171.921 269.64 171.541 269.59C171.265 269.527 170.994 269.443 170.731 269.34C169.411 268.86 165.581 268.14 159.271 266.86C157.891 266.58 155.844 266.137 153.131 265.53C150.417 264.923 148.374 264.483 147.001 264.21C146.411 264.09 146.121 263.67 146.131 262.9C146.131 259.9 146.261 254.8 146.451 247.64C146.641 240.48 146.781 235.64 146.761 232.97C146.741 230.3 146.991 225.37 147.471 218.56C147.591 216.81 147.791 214.23 147.751 210.56C147.751 210.37 147.751 210.27 147.751 210.08C147.729 209.842 147.781 209.604 147.899 209.397C148.017 209.189 148.195 209.023 148.411 208.92C149.681 208.23 151.601 207.21 154.151 205.92C156.701 204.63 158.621 203.58 159.891 202.92C161.161 202.26 163.051 201.17 165.601 199.92C167.464 198.947 169.384 198.085 171.351 197.34C172.261 197.01 172.771 197.34 172.821 198.34C172.85 200.285 172.743 202.23 172.501 204.16C172.161 207.53 171.831 209.68 171.691 210.43C171.551 211.18 171.351 211.43 171.011 211.51L170.491 211.6C166.431 212.118 162.471 213.237 158.741 214.92C157.975 215.196 157.349 215.764 157.001 216.5C156.758 217.487 156.581 218.489 156.471 219.5C156.214 220.584 156.231 221.715 156.521 222.79C156.731 223.18 157.211 223.25 157.971 222.99C158.131 222.94 158.441 222.82 158.901 222.62C159.361 222.42 159.741 222.29 160.041 222.19C162.041 221.54 164.041 220.84 166.201 220.12L167.581 219.58C168.015 219.385 168.467 219.231 168.931 219.12C169.331 219.03 169.481 219.33 169.391 219.99C169.471 219.39 168.801 221.81 168.391 226.39C168.237 228.963 168.291 231.545 168.551 234.11C168.601 234.87 168.401 235.31 167.921 235.38C167.021 235.27 166.571 235.23 165.681 235.15C163.568 235.208 161.469 235.5 159.421 236.02L156.921 236.57C156.619 236.621 156.345 236.776 156.146 237.008C155.947 237.24 155.836 237.534 155.831 237.84C155.831 238.01 155.831 239.06 155.951 241.12C155.984 242.954 156.157 244.783 156.471 246.59C156.821 248.02 157.931 248.86 159.801 249.1L163.471 249.03C164.807 248.944 166.129 248.706 167.411 248.32C168.713 247.93 170.055 247.682 171.411 247.58C171.711 247.62 172.001 248.5 172.141 250.12Z"
        fill="#1D1D1B" />
    <path
        d="M210.741 193.18C210.821 196.71 211.061 203.77 211.321 213.64C211.581 223.51 211.601 229.19 211.631 232.11C211.941 242.24 213.091 252.32 213.631 262.45C213.631 263.19 213.391 263.62 212.841 263.79C212.291 263.96 211.711 264.16 210.841 264.48C209.971 264.8 209.251 265.04 208.841 265.17C208.119 265.365 207.388 265.521 206.651 265.64C205.651 265.8 204.941 265.94 204.461 266.07C203.981 266.2 203.711 265.8 203.191 264.88C201.681 262.15 197.781 254.14 191.601 239.56C189.901 235.49 187.151 229.66 184.811 224.79C184.718 224.594 184.585 224.421 184.421 224.28C184.229 224.513 184.13 224.808 184.141 225.11C183.971 228.03 184.501 233.95 185.771 244.93C187.041 255.91 187.911 263.93 188.151 267.84C188.221 269.04 187.991 269.57 187.501 269.62C184.395 269.935 181.266 269.935 178.161 269.62C177.631 269.62 177.361 269.11 177.301 268.07C177.081 264.43 176.501 257.22 175.631 246.82C174.761 236.42 174.321 229.95 174.241 226.94C174.151 223.77 174.671 219.16 175.821 212.06C176.971 204.96 177.751 199.77 177.991 196.66C178.006 196.375 178.127 196.106 178.33 195.906C178.534 195.706 178.805 195.59 179.091 195.58C180.091 195.41 181.401 195.14 182.941 194.86C183.301 194.8 184.031 194.61 185.071 194.32C185.75 194.11 186.451 193.975 187.161 193.92C187.361 193.92 187.671 194.31 188.041 195.18C191.281 202.97 191.601 209.51 195.041 220.11C196.119 223.362 197.457 226.522 199.041 229.56C199.571 230.56 200.041 231.12 200.381 231.19C200.721 231.26 200.671 230.08 200.741 228.11C200.841 225.45 200.921 220.21 201.061 212.11C201.201 204.01 201.371 198.31 201.501 195.21C201.501 194.12 201.721 193.62 202.051 193.58C202.981 193.44 204.381 193.17 206.221 192.74C208.061 192.31 209.431 192 210.341 191.85C210.581 191.83 210.721 192.22 210.741 193.18Z"
        fill="#1D1D1B" />
    <path
        d="M242 210.15C242.21 211.26 242.12 211.82 241.73 211.82C238.953 211.512 236.193 211.065 233.46 210.48C235.67 224.1 236.8 232.18 237.07 235.35C237.38 239.1 237.24 242.2 237.52 246.45C237.8 250.7 237.94 253.91 237.94 256.39C237.959 256.534 237.946 256.679 237.903 256.817C237.86 256.956 237.788 257.083 237.69 257.19C237.448 257.322 237.189 257.419 236.92 257.48C235.82 257.84 234.2 258.22 232.05 258.7C230.406 259.135 228.736 259.469 227.05 259.7C226.53 259.7 226.26 259.43 226.25 258.82C226.25 256.07 226.08 251.77 225.96 246.11C225.84 240.45 226.06 237.01 225.82 233.37C225.67 230.97 224.82 223.93 223.05 210.54C220.346 211.263 217.548 211.577 214.75 211.47C214.46 211.47 214.3 211.21 214.27 210.76C214.24 210.31 214.27 208.43 214.27 205.6C214.32 202.51 214.36 200.72 214.35 200.11C214.3 198.2 214.21 196.33 214.19 194.67C214.19 192.02 214.32 191.02 214.58 190.98H214.9C218.644 191.09 222.391 190.886 226.1 190.37C227.54 190.21 230.1 189.56 234.23 188.77C236.42 188.35 237.59 188.21 237.61 188.21C237.96 188.21 238.17 188.21 238.23 188.31C238.337 188.595 238.391 188.896 238.39 189.2C238.48 190.05 238.57 191.38 238.82 193.39C239.09 195.61 239.38 197.45 239.57 198.53C239.76 199.61 240.15 201.62 240.74 204.22C241.33 206.82 241.72 208.81 242 210.15Z"
        fill="#1D1D1B" />
    <path
        d="M80.3306 330.03C80.1933 330.846 79.9122 331.632 79.5006 332.35C75.2906 340.29 71.3706 342.5 65.8906 342.5C60.4106 342.5 55.7606 339.98 52.2806 332.85C48.9006 325.94 47.1606 315.68 47.1906 307.6C47.1906 298.66 48.6506 288.02 52.4106 279.87C56.0706 271.94 60.8806 270.18 66.1506 269.97C71.8906 269.75 75.8506 271.3 79.7706 277.85C80.1582 278.456 80.4106 279.138 80.5106 279.85C80.3063 282.574 79.8612 285.275 79.1806 287.92C78.1806 292.61 77.3206 295.08 76.9706 295.63C76.9192 295.757 76.8344 295.868 76.7253 295.95C76.6161 296.033 76.4867 296.085 76.3506 296.1C75.7124 295.514 75.1603 294.841 74.7106 294.1C73.7493 292.692 72.6396 291.391 71.4006 290.22C70.1551 288.959 68.4627 288.241 66.6906 288.22C63.9506 288.31 61.7806 290.36 60.1106 294.33C58.5696 298.065 57.7551 302.06 57.7106 306.1C57.7122 310.156 58.4509 314.178 59.8906 317.97C61.4706 321.92 63.5606 324.08 66.3206 324.04C68.1482 323.932 69.8669 323.135 71.1306 321.81C72.3797 320.599 73.496 319.258 74.4606 317.81C74.9291 317.038 75.4862 316.323 76.1206 315.68C76.3306 315.68 76.5306 315.86 76.7106 316.25C77.5825 318.491 78.2975 320.79 78.8506 323.13C79.5298 325.386 80.0248 327.694 80.3306 330.03Z"
        fill="#1D1D1B" />
    <path
        d="M114.811 340.69C114.811 340.89 114.571 341.03 114.201 341.12C112.487 341.345 110.758 341.428 109.031 341.37C107.433 341.419 105.834 341.336 104.251 341.12C104.113 341.134 103.973 341.113 103.845 341.06C103.717 341.008 103.603 340.925 103.515 340.818C103.426 340.712 103.365 340.585 103.336 340.449C103.307 340.314 103.312 340.173 103.351 340.04C103.238 338.097 103.261 336.149 103.421 334.21C103.661 330.56 104.511 324.32 104.821 316.7C104.873 316.401 104.856 316.094 104.772 315.802C104.688 315.51 104.539 315.241 104.336 315.016C104.132 314.79 103.88 314.614 103.599 314.5C103.317 314.387 103.013 314.339 102.711 314.36C103.371 314.36 102.211 314.5 99.2205 314.7C98.8805 314.7 98.5105 315.7 98.0505 317.7C97.4405 320.37 96.5205 324.56 95.5805 329.78C94.6405 335 94.2005 338.33 94.0005 340.3C93.9505 340.79 93.8305 341.1 93.6805 341.14C93.4296 341.188 93.1756 341.218 92.9205 341.23C91.8505 341.34 90.1905 341.39 87.9205 341.4C86.3664 341.475 84.8087 341.394 83.2705 341.16C82.7505 341 82.4905 340.59 82.5205 339.86C82.9989 333.884 83.7832 327.936 84.8705 322.04C86.3005 313.44 86.9405 307.9 86.8705 305.11C86.6305 293.78 84.1305 282.71 82.8705 271.49V270.87C82.8549 270.621 82.9234 270.375 83.0648 270.17C83.2063 269.965 83.4126 269.814 83.6505 269.74C84.2105 269.48 86.8505 268.87 91.5405 267.86C94.7105 267.17 97.2405 266.65 99.1405 266.33C103.061 265.65 106.301 266.47 110.001 269.66C114.171 273.27 119.001 280.09 122.761 288.59C125.251 294.25 126.061 298.14 125.521 300.59C124.981 303.04 122.651 305.38 119.371 308.41C118.824 308.85 118.404 309.426 118.151 310.08C117.909 315.164 117.341 320.228 116.451 325.24C115.572 330.349 115.025 335.51 114.811 340.69ZM111.581 293.16C110.151 288.73 107.971 285.36 105.701 283.72C103.789 282.414 101.437 281.918 99.1605 282.34C97.2505 282.59 96.3705 283.34 96.5505 284.42C96.7505 285.73 97.8405 289.77 99.0205 295.42C99.1905 296.23 99.4405 297.42 99.6905 298.83C99.9405 300.24 100.061 301.23 100.111 301.83C100.111 301.97 100.521 302.08 101.291 302.15C102.821 302.28 104.36 302.28 105.891 302.15C111.101 301.73 113.611 299.5 111.581 293.16Z"
        fill="#1D1D1B" />
    <path
        d="M160.131 335.38C160.131 335.81 159.781 336.26 159.131 336.54C156.941 337.23 154.696 337.728 152.421 338.03C150.292 338.479 148.126 338.726 145.951 338.77C145.191 338.71 144.761 338.16 144.771 337.03C144.771 332.73 145.361 329.64 145.071 329.35C144.781 329.06 141.961 329.35 136.861 329.71C133.431 329.96 131.631 330.22 131.281 330.59C129.965 332.495 128.88 334.549 128.051 336.71C126.811 339.63 126.261 340.86 125.731 341.07C125.201 341.28 122.951 341.46 119.491 341.46C116.761 341.46 115.361 340.97 115.581 340.2C119.041 328.2 130.691 314.84 135.011 303.35C139.231 292.11 128.011 277.5 127.551 265C127.551 263.94 127.781 263.44 128.071 263.47C128.834 263.545 129.59 263.682 130.331 263.88C131.331 264.12 132.131 264.28 132.631 264.34C133.131 264.4 133.831 264.45 134.761 264.5C135.46 264.524 136.158 264.584 136.851 264.68C137.191 264.74 137.531 265.22 138.001 266.22C144.311 279.22 156.701 291.77 158.751 304.41C160.251 313.36 159.651 326.25 160.131 335.38ZM144.071 290.74C144.461 292.37 145.781 296.14 145.561 300.2C145.331 304.5 143.191 307.43 142.891 308.39C142.691 309.04 143.131 309.39 144.101 309.55C144.591 309.62 145.471 309.72 146.691 309.77C147.911 309.82 148.541 309.57 148.821 309.02C148.926 308.785 149.009 308.54 149.071 308.29C149.974 305.643 149.924 302.764 148.931 300.15C147.703 296.826 146.071 293.665 144.071 290.74Z"
        fill="#1D1D1B" />
    <path
        d="M187.39 288.86C187.54 289.24 187.39 289.43 187.07 289.43C184.951 289.318 182.848 288.999 180.79 288.48C177.95 287.82 175.88 287.36 174.58 287.19C172.92 286.98 172.02 286.97 171.85 287.19C171.47 287.71 171.91 289.4 173.03 292.19C174.37 295.53 175.33 297.32 176.26 297.84C176.761 298.07 177.3 298.206 177.85 298.24C179.533 298.383 181.224 298.413 182.91 298.33C185.16 298.26 186.91 298.2 188.11 298.23C188.69 298.23 190.42 301.47 190.51 305.87C190.58 309.7 191.08 311.69 191.03 312.27C191.03 312.68 190.81 312.9 190.47 312.89C189.916 312.729 189.346 312.628 188.77 312.59C186.87 312.29 184.054 312.05 180.32 311.87C179.12 311.81 178.44 311.79 178.32 311.81C178.128 311.831 177.943 311.892 177.775 311.989C177.608 312.086 177.463 312.217 177.349 312.373C177.235 312.529 177.155 312.707 177.114 312.896C177.073 313.085 177.072 313.281 177.11 313.47C177.33 317.31 177.7 322 178.25 326.92C178.76 331.36 178.99 333.08 178.96 332.64C178.96 333.27 178.31 333.74 176.85 334.06C175.803 334.164 174.762 334.32 173.73 334.53C170.893 335.12 168.008 335.455 165.11 335.53C164.42 335.47 164.11 335.13 164.11 334.53C164.24 331.53 164.93 326.35 165.99 319.21C166.821 314.35 167.315 309.438 167.47 304.51C167.47 301.25 165.67 295.88 162.22 288.51C156.88 277.06 155.06 271.68 154.89 270.99C154.83 270.78 154.8 270.67 154.75 270.46C154.58 269.73 154.81 269.46 155.37 269.57C156.69 269.86 158.69 270.34 161.37 270.97C164.05 271.6 166.07 271.97 167.37 272.23C169.492 272.553 171.635 272.707 173.78 272.69C176.63 272.69 178.78 272.69 180.22 272.76C181.12 272.76 181.7 273.36 181.93 274.47C182.32 276.473 182.865 278.442 183.56 280.36C183.82 281.07 184.41 282.47 185.42 284.6C186.31 286.36 187 287.83 187.39 288.86Z"
        fill="#1D1D1B" />
    <path
        d="M216.491 281.5C216.721 282.17 216.641 282.57 216.241 282.71C213.478 283.505 210.674 284.146 207.841 284.63C210.841 293.23 212.251 298.71 212.481 301.34C212.751 304.44 212.991 308.8 213.801 316.45C214.611 324.1 215.121 329.72 215.301 332.79C215.301 333.28 215.301 333.56 215.181 333.65C215.061 333.74 214.971 333.65 214.661 333.65C213.505 333.545 212.361 333.341 211.241 333.04C209.946 332.793 208.67 332.459 207.421 332.04C207.199 331.931 207.013 331.761 206.884 331.55C206.755 331.34 206.688 331.097 206.691 330.85C206.381 328.05 205.461 323.51 204.221 317.32C203.353 312.931 202.755 308.492 202.431 304.03C202.241 301.97 200.871 296.74 197.211 287.52C194.614 288.639 191.835 289.279 189.011 289.41C188.865 289.404 188.725 289.351 188.611 289.259C188.498 289.167 188.417 289.041 188.381 288.9C188.211 288.45 187.801 287.11 187.241 284.9C186.621 282.52 186.331 281.12 186.241 280.64C185.831 279.13 185.411 277.64 185.161 276.23C184.751 274 184.941 273.05 185.251 273.03H185.641C188.641 273.46 193.041 273.28 198.901 271.87C202.024 270.973 205.081 269.86 208.051 268.54L211.681 267C212.051 266.88 212.271 266.85 212.331 266.89C212.448 267.123 212.513 267.379 212.521 267.64C212.621 268.35 212.741 269.42 213.021 270.86C213.331 272.45 213.661 273.65 213.861 274.34C214.061 275.03 214.511 276.34 215.141 277.85C215.771 279.36 216.221 280.65 216.491 281.5Z"
        fill="#1D1D1B" />
</svg>